<svg width="35" height="35" viewBox="0 0 35 35" fill="none" xmlns="http://www.w3.org/2000/svg">
<path d="M34.2428 22.3888C34.4657 21.6571 33.5662 21.1341 32.9278 21.5555C30.7971 22.9621 28.2442 23.7809 25.5 23.7809C18.0442 23.7809 12 17.7367 12 10.2809C12 6.89286 13.248 3.79635 15.3095 1.426C15.8114 0.848902 15.4107 -0.112554 14.6559 0.0108083C6.34355 1.36936 0 8.5843 0 17.2809C0 26.9458 7.83502 34.7809 17.5 34.7809C25.388 34.7809 32.0572 29.562 34.2428 22.3888Z" fill="black"/>
<path d="M23.0422 1.97129C23.3274 1.02133 24.6726 1.02133 24.9578 1.97129L25.7863 4.73132C25.8794 5.04126 26.1167 5.28701 26.4231 5.39088L29.2054 6.33379C30.1108 6.64063 30.1108 7.92114 29.2054 8.22797L26.4231 9.17089C26.1167 9.27476 25.8794 9.52051 25.7863 9.83045L24.9578 12.5905C24.6726 13.5404 23.3274 13.5404 23.0422 12.5905L22.2137 9.83045C22.1206 9.52051 21.8833 9.27476 21.5769 9.17089L18.7946 8.22797C17.8892 7.92114 17.8892 6.64063 18.7946 6.33379L21.5769 5.39088C21.8833 5.28701 22.1206 5.04125 22.2137 4.73132L23.0422 1.97129Z" fill="black"/>
<path d="M33 2.78088C33 3.33317 32.5523 3.78088 32 3.78088C31.4477 3.78088 31 3.33317 31 2.78088C31 2.2286 31.4477 1.78088 32 1.78088C32.5523 1.78088 33 2.2286 33 2.78088Z" fill="black"/>
<path d="M35 10.7809C35 11.3332 34.5523 11.7809 34 11.7809C33.4477 11.7809 33 11.3332 33 10.7809C33 10.2286 33.4477 9.78088 34 9.78088C34.5523 9.78088 35 10.2286 35 10.7809Z" fill="black"/>
</svg>
